<svg width="120" height="40" viewBox="0 0 120 40" fill="none" xmlns="http://www.w3.org/2000/svg">
  <!-- Audible Logo - Amazon/Audible brand colors -->
  <g>
    <!-- Audible "A" icon -->
    <path d="M8 28L14 12L20 28H17L15.5 24H12.5L11 28H8Z" fill="#FF9900"/>
    <path d="M13 20H15L14 17L13 20Z" fill="#FF9900"/>

    <!-- Audible wordmark -->
    <g fill="#000000">
      <!-- A -->
      <path d="M28 28L31 19.5L34 28H32.5L31.8 26H30.2L29.5 28H28ZM30.5 24.5H31.5L31 23L30.5 24.5Z"/>

      <!-- U -->
      <path d="M37 19.5V25C37 26.1 37.9 27 39 27C40.1 27 41 26.1 41 25V19.5H42.5V25C42.5 26.9 40.9 28.5 39 28.5C37.1 28.5 35.5 26.9 35.5 25V19.5H37Z"/>

      <!-- D -->
      <path d="M46 19.5H48C49.9 19.5 51.5 21.1 51.5 23C51.5 24.9 49.9 26.5 48 26.5V28H46V19.5ZM48 25C49.1 25 50 24.1 50 23C50 21.9 49.1 21 48 21H47.5V25H48Z"/>

      <!-- I -->
      <path d="M54.5 19.5H56V28H54.5V19.5Z"/>

      <!-- B -->
      <path d="M59 19.5H61C62.1 19.5 63 20.4 63 21.5C63 22.1 62.7 22.6 62.3 23C62.7 23.4 63 23.9 63 24.5C63 25.6 62.1 26.5 61 26.5V28H59V19.5ZM61 22.5C61.3 22.5 61.5 22.3 61.5 22C61.5 21.7 61.3 21.5 61 21.5H60.5V22.5H61ZM61 25C61.3 25 61.5 24.8 61.5 24.5C61.5 24.2 61.3 24 61 24H60.5V25H61Z"/>

      <!-- L -->
      <path d="M66 19.5H67.5V26.5H70V28H66V19.5Z"/>

      <!-- E -->
      <path d="M72 19.5H76V21H73.5V22.5H75.5V24H73.5V26.5H76V28H72V19.5Z"/>
    </g>

    <!-- Audio wave accent -->
    <g opacity="0.3" fill="#FF9900">
      <rect x="78" y="22" width="1.5" height="4" rx="0.75"/>
      <rect x="81" y="20" width="1.5" height="8" rx="0.75"/>
      <rect x="84" y="21" width="1.5" height="6" rx="0.75"/>
      <rect x="87" y="19" width="1.5" height="10" rx="0.75"/>
    </g>
  </g>
</svg>
